<svg viewBox="0 0 780 440" xmlns="http://www.w3.org/2000/svg"><path d="m0 0h780v440h-780z" fill="#2079c3"/><circle cx="390" cy="220" fill="none" r="155" stroke="#000" stroke-miterlimit="10" stroke-width="2"/><path d="m390 85v260" fill="none" stroke="#000" stroke-miterlimit="10" stroke-width="2"/><path d="m535 300-290-160" fill="none" stroke="#000" stroke-miterlimit="10" stroke-width="2"/><path d="m250 305 280-170" fill="none" stroke="#000" stroke-miterlimit="10" stroke-width="2"/><ellipse cx="390" cy="220" fill="#2079c3" rx="60" ry="50"/><circle cx="540" cy="135" fill="#2079c3" r="50"/><circle cx="532.5" cy="302.5" fill="#2079c3" r="42.5"/><circle cx="390" cy="65" fill="#2079c3" r="45"/><circle cx="235" cy="140" fill="#2079c3" r="45"/><circle cx="245" cy="300" fill="#2079c3" r="45"/><ellipse cx="395" cy="372.5" fill="#2079c3" rx="50" ry="37.5"/><path d="m376.36 40v2.5a2.74 2.74 0 0 1 -5.45 0v-5a2.74 2.74 0 0 1 5.45 0z" fill="#fff"/><path d="m409.09 40v2.5a2.74 2.74 0 0 1 -5.45 0v-5a2.74 2.74 0 0 1 5.45 0z" fill="#fff"/><path d="m420 50v38a2.1 2.1 0 0 1 -2.18 2h-55.64a2.1 2.1 0 0 1 -2.18-2v-38zm-18.48 28.35v-19.93h-2.18l-4 3.22v2.29l4-3.27v17.69zm-17.26.2c3.52 0 6.34-2 6.34-5.63a4.66 4.66 0 0 0 -3.31-4.87 4.46 4.46 0 0 0 2.91-4.43c0-3.24-2.42-5.4-5.94-5.4-3.28 0-5.83 1.9-6.08 5.12h2.19a3.56 3.56 0 0 1 3.89-3.34 3.48 3.48 0 0 1 3.74 3.65c0 2.24-1.22 3.61-3.86 3.61h-.45v1.74h.45c2.95 0 4.25 1.45 4.25 3.86s-1.82 3.87-4.15 3.87c-2.07 0-4-1-4.16-3.48h-2.19c.2 3.65 2.97 5.3 6.37 5.3z" fill="#fff"/><path d="m370.91 40v2.5a2.74 2.74 0 0 0 5.45 0v-2.5h27.28v2.5a2.74 2.74 0 0 0 5.45 0v-2.5h8.73a2.1 2.1 0 0 1 2.18 2v8h-60v-8a2.1 2.1 0 0 1 2.18-2z" fill="#2079c3"/><path d="m401.52 58.42v19.93h-2.18v-17.69l-4.04 3.27v-2.29l4.04-3.22z"/><path d="m388 63.65a3.48 3.48 0 0 0 -3.74-3.65 3.56 3.56 0 0 0 -3.89 3.33h-2.19c.25-3.22 2.8-5.12 6.08-5.12 3.52 0 5.94 2.16 5.94 5.4a4.46 4.46 0 0 1 -2.91 4.43 4.66 4.66 0 0 1 3.31 4.87c0 3.67-2.82 5.63-6.34 5.63s-6.17-1.65-6.35-5.27h2.19c.18 2.5 2.09 3.48 4.16 3.48 2.33 0 4.15-1.43 4.15-3.87s-1.3-3.88-4.25-3.88h-.45v-1.74h.45c2.64 0 3.84-1.37 3.84-3.61z"/><path d="m370.91 40h-8.73a2.1 2.1 0 0 0 -2.18 2v46a2.1 2.1 0 0 0 2.18 2h55.64a2.1 2.1 0 0 0 2.18-2v-46a2.1 2.1 0 0 0 -2.18-2h-8.73" fill="none" stroke="#000" stroke-miterlimit="10" stroke-width="2"/><path d="m403.64 40h-27.28" fill="none" stroke="#000" stroke-miterlimit="10" stroke-width="2"/><path d="m370.91 40v-2.5a2.74 2.74 0 0 1 5.45 0v2.5" fill="none" stroke="#000" stroke-miterlimit="10" stroke-width="2"/><path d="m370.91 40v2.5a2.74 2.74 0 0 0 5.45 0v-2.5" fill="none" stroke="#000" stroke-miterlimit="10" stroke-width="2"/><path d="m409.09 40v2.5a2.74 2.74 0 0 1 -5.45 0v-2.5" fill="none" stroke="#000" stroke-miterlimit="10" stroke-width="2"/><path d="m409.09 40v-2.5a2.74 2.74 0 0 0 -5.45 0v2.5" fill="none" stroke="#000" stroke-miterlimit="10" stroke-width="2"/><path d="m419.81 50h-58.54" fill="none" stroke="#000" stroke-miterlimit="10" stroke-width="2"/><path d="m424.08 180h-68.17a5.84 5.84 0 0 0 -5.91 5.76v68.47a5.84 5.84 0 0 0 5.91 5.77h68.17a5.84 5.84 0 0 0 5.92-5.77v-68.47a5.84 5.84 0 0 0 -5.92-5.76zm-50.38 68.15h-11.85v-38.15h11.85zm-5.92-43.36a6.88 6.88 0 1 1 6.88-6.88 6.89 6.89 0 0 1 -6.88 6.88zm50.34 43.36h-11.85v-18.55c0-4.43-.08-10.12-6.17-10.12s-7.11 4.82-7.11 9.8v18.87h-11.85v-38.15h11.38v5.21h.16c1.58-3 5.45-6.16 11.22-6.16 12 0 14.22 7.91 14.22 18.18z" fill="#fff"/><path d="m560.5 270.5v70h-20v-15h-10v15h-20v-70zm-11 45v-5h-10v5zm0-15v-5h-10v5zm0-15v-5h-10v5zm-19 30v-5h-10v5zm0-15v-5h-10v5zm0-15v-5h-10v5z" fill="#fff"/><g fill="none" stroke="#000"><path d="m540.5 340.5h20v-70h-50v70h20" stroke-linecap="round" stroke-linejoin="round" stroke-width="2"/><path d="m540.5 340.5v-15h-10v15" stroke-linecap="round" stroke-linejoin="round" stroke-width="2"/><path d="m540.5 340.5h-10" stroke-linecap="round" stroke-linejoin="round" stroke-width="2"/><path d="m520.5 310.5h10v5h-10z" stroke-linecap="round" stroke-linejoin="round" stroke-width="2"/><path d="m539.5 310.5h10v5h-10z" stroke-linecap="round" stroke-linejoin="round" stroke-width="2"/><path d="m520.5 295.5h10v5h-10z" stroke-linecap="round" stroke-linejoin="round" stroke-width="2"/><path d="m539.5 295.5h10v5h-10z" stroke-linecap="round" stroke-linejoin="round" stroke-width="2"/><path d="m520.5 280.5h10v5h-10z" stroke-linecap="round" stroke-linejoin="round" stroke-width="2"/><path d="m539.5 280.5h10v5h-10z" stroke-linecap="round" stroke-linejoin="round" stroke-width="2"/></g><path d="m280.5 295.5a25 25 0 0 1 -12.29 21.5l-27.71 18.5v-15h-15a25 25 0 0 1 0-50h30a25 25 0 0 1 25 25zm-22.5 0a2.5 2.5 0 1 0 -2.5 2.5 2.5 2.5 0 0 0 2.5-2.5zm-15 0a2.5 2.5 0 1 0 -2.5 2.5 2.5 2.5 0 0 0 2.5-2.5zm-15 0a2.5 2.5 0 1 0 -2.5 2.5 2.5 2.5 0 0 0 2.5-2.5z" fill="#fff"/><path d="m200.5 295.5a25 25 0 0 0 25 25h15v15l27.71-18.5a25 25 0 0 0 -12.71-46.5h-30a25 25 0 0 0 -25 25z" fill="none" stroke="#000" stroke-miterlimit="10" stroke-width="2"/><circle cx="240.5" cy="295.5" fill="none" r="2.5" stroke="#000" stroke-miterlimit="10" stroke-width="2"/><circle cx="255.5" cy="295.5" fill="none" r="2.5" stroke="#000" stroke-miterlimit="10" stroke-width="2"/><circle cx="225.5" cy="295.5" fill="none" r="2.5" stroke="#000" stroke-miterlimit="10" stroke-width="2"/><path d="m575.5 125v40a5 5 0 0 1 -1.46 3.54l-18.54-18.54-10 10-25-25-15 15v-25a5 5 0 0 1 5-5h60a5 5 0 0 1 5 5zm-10 10a5 5 0 1 0 -5 5 5 5 0 0 0 5-5z" fill="#2079c3"/><path d="m555.5 150 18.5 18.54a5 5 0 0 1 -3.5 1.46h-60a5 5 0 0 1 -5-5v-15l15-15 25 25z" fill="#fff"/><circle cx="560.5" cy="135" fill="#fff" r="5"/><path d="m574 168.54a5 5 0 0 1 -3.5 1.46h-60a5 5 0 0 1 -5-5v-15" fill="none" stroke="#000" stroke-linecap="round" stroke-linejoin="round" stroke-width="2"/><path d="m574 168.54a5 5 0 0 0 1.5-3.54v-40a5 5 0 0 0 -5-5h-60a5 5 0 0 0 -5 5v25" fill="none" stroke="#000" stroke-linecap="round" stroke-linejoin="round" stroke-width="2"/><path d="m574.04 168.54-18.54-18.54-10 10-25-25-15 15" fill="none" stroke="#000" stroke-linecap="round" stroke-linejoin="round" stroke-width="2"/><circle cx="560.5" cy="135" fill="none" r="5" stroke="#000" stroke-linecap="round" stroke-linejoin="round" stroke-width="2"/><path d="m260 150.75v18.75h-18.75v-18.75a6.25 6.25 0 0 1 6.25-6.25h6.25a6.25 6.25 0 0 1 6.25 6.25z" fill="#fff"/><path d="m250.62 119.5a9.38 9.38 0 1 1 -9.37 9.38 9.38 9.38 0 0 1 9.37-9.38z" fill="#fff"/><path d="m235 144.5v25h-25v-25a6.25 6.25 0 0 1 6.25-6.25h12.5a6.25 6.25 0 0 1 6.25 6.25z" fill="#fff"/><circle cx="222.5" cy="119.5" fill="#fff" r="12.5"/><path d="m210 144.5v25h25v-25a6.25 6.25 0 0 0 -6.25-6.25h-12.5a6.25 6.25 0 0 0 -6.25 6.25z" fill="none" stroke="#000" stroke-miterlimit="10" stroke-width="2"/><circle cx="222.5" cy="119.5" fill="none" r="12.5" stroke="#000" stroke-miterlimit="10" stroke-width="2"/><path d="m241.25 128.88a9.38 9.38 0 1 0 9.37-9.38 9.38 9.38 0 0 0 -9.37 9.38z" fill="none" stroke="#000" stroke-miterlimit="10" stroke-width="2"/><path d="m241.25 150.75v18.75h18.75v-18.75a6.25 6.25 0 0 0 -6.25-6.25h-6.25a6.25 6.25 0 0 0 -6.25 6.25z" fill="none" stroke="#000" stroke-miterlimit="10" stroke-width="2"/><path d="m400 385h30v10h-30z" fill="#2079c3"/><path d="m420 370h10v10h-10z" fill="#2079c3"/><path d="m410 355h20v10h-20z" fill="#2079c3"/><path d="m370 370h50v10h-50z" fill="#fff"/><path d="m370 355h40v10h-40z" fill="#fff"/><path d="m370 385h30v10h-30z" fill="#fff"/><path d="m410 355h20v10h-20" fill="none" stroke="#000" stroke-linecap="round" stroke-linejoin="round" stroke-width="2"/><path d="m420 370h10v10h-10" fill="none" stroke="#000" stroke-linecap="round" stroke-linejoin="round" stroke-width="2"/><path d="m400 385h30v10h-30" fill="none" stroke="#000" stroke-linecap="round" stroke-linejoin="round" stroke-width="2"/><path d="m366 371.33-7.33 7.34-3.67-3.67" fill="none" stroke="#000" stroke-miterlimit="10" stroke-width="3"/><path d="m370 355h40v10h-40z" fill="none" stroke="#000" stroke-linecap="round" stroke-linejoin="round" stroke-width="2"/><path d="m370 370h50v10h-50z" fill="none" stroke="#000" stroke-linecap="round" stroke-linejoin="round" stroke-width="2"/><path d="m370 385h30v10h-30z" fill="none" stroke="#000" stroke-linecap="round" stroke-linejoin="round" stroke-width="2"/></svg>